<svg width="30" height="32" viewBox="0 0 30 32" fill="none" xmlns="http://www.w3.org/2000/svg">
<path d="M30 2.66667V29.3333C30 30.0406 29.7127 30.7189 29.2012 31.219C28.6897 31.719 27.996 32 27.2727 32H20.4545C19.7312 32 19.0375 31.719 18.5261 31.219C18.0146 30.7189 17.7273 30.0406 17.7273 29.3333V2.66667C17.7273 1.95942 18.0146 1.28115 18.5261 0.781048C19.0375 0.280951 19.7312 0 20.4545 0H27.2727C27.996 0 28.6897 0.280951 29.2012 0.781048C29.7127 1.28115 30 1.95942 30 2.66667ZM9.54545 0H2.72727C2.00396 0 1.31026 0.280951 0.7988 0.781048C0.287337 1.28115 0 1.95942 0 2.66667V29.3333C0 30.0406 0.287337 30.7189 0.7988 31.219C1.31026 31.719 2.00396 32 2.72727 32H9.54545C10.2688 32 10.9625 31.719 11.4739 31.219C11.9854 30.7189 12.2727 30.0406 12.2727 29.3333V2.66667C12.2727 1.95942 11.9854 1.28115 11.4739 0.781048C10.9625 0.280951 10.2688 0 9.54545 0Z" fill="#164371"/>
</svg>
