<svg width="22" height="22" viewBox="0 0 22 22" fill="none" xmlns="http://www.w3.org/2000/svg">
<path d="M21.9376 1V17.25C21.9376 17.4986 21.8388 17.7371 21.663 17.9129C21.4872 18.0887 21.2487 18.1875 21.0001 18.1875C20.7514 18.1875 20.513 18.0887 20.3371 17.9129C20.1613 17.7371 20.0626 17.4986 20.0626 17.25V3.2625L1.66255 21.6625C1.48483 21.8281 1.24978 21.9183 1.0069 21.914C0.764023 21.9097 0.532291 21.8113 0.360525 21.6395C0.188759 21.4678 0.0903688 21.236 0.0860836 20.9932C0.0817983 20.7503 0.171952 20.5152 0.337552 20.3375L18.7376 1.9375H4.75005C4.50141 1.9375 4.26296 1.83873 4.08714 1.66291C3.91132 1.4871 3.81255 1.24864 3.81255 1C3.81255 0.75136 3.91132 0.512903 4.08714 0.337087C4.26296 0.161272 4.50141 0.0625 4.75005 0.0625H21.0001C21.2487 0.0625 21.4872 0.161272 21.663 0.337087C21.8388 0.512903 21.9376 0.75136 21.9376 1Z" fill="#164371"/>
</svg>
