<svg width="20" height="20" viewBox="0 0 20 20" fill="none" xmlns="http://www.w3.org/2000/svg">
<g clip-path="url(#clip0_252_3447)">
<path d="M2.67188 3.84484C2.67188 2.54982 2.67193 1.5 2.67193 1.5L17.327 1.50001C17.327 1.50001 17.327 2.54982 17.327 3.84484V18.5H2.67188V3.84484Z" stroke="#1C1915" stroke-width="1.5" stroke-linecap="round"/>
<path d="M18.5 18.5H1.5" stroke="#1C1915" stroke-width="1.5" stroke-linecap="square" stroke-linejoin="round"/>
<path d="M7.36328 14.3966C7.36328 13.1015 8.41306 12.0518 9.70811 12.0518H10.2943C11.5894 12.0518 12.6391 13.1015 12.6391 14.3966V18.5H7.36328V14.3966Z" stroke="#1C1915" stroke-width="1.5" stroke-linecap="round"/>
<path d="M7.65484 8.82725C8.30234 8.82725 8.82725 8.30234 8.82725 7.65484C8.82725 7.00733 8.30234 6.48242 7.65484 6.48242C7.00733 6.48242 6.48242 7.00733 6.48242 7.65484C6.48242 8.30234 7.00733 8.82725 7.65484 8.82725Z" fill="#1C1915"/>
<path d="M12.3443 8.82725C12.9918 8.82725 13.5167 8.30234 13.5167 7.65484C13.5167 7.00733 12.9918 6.48242 12.3443 6.48242C11.6968 6.48242 11.1719 7.00733 11.1719 7.65484C11.1719 8.30234 11.6968 8.82725 12.3443 8.82725Z" fill="#1C1915"/>
</g>
<defs>
<clipPath id="clip0_252_3447">
<rect width="20" height="20" fill="white"/>
</clipPath>
</defs>
</svg>
