<svg width="26" height="26" viewBox="0 0 26 26" fill="none" xmlns="http://www.w3.org/2000/svg">
<path d="M24.9126 23.5875C25.0047 23.6733 25.0785 23.7768 25.1298 23.8918C25.181 24.0068 25.2086 24.131 25.2108 24.2568C25.213 24.3827 25.1899 24.5078 25.1427 24.6245C25.0956 24.7412 25.0254 24.8473 24.9364 24.9363C24.8473 25.0253 24.7413 25.0955 24.6245 25.1426C24.5078 25.1898 24.3828 25.213 24.2569 25.2107C24.131 25.2085 24.0069 25.181 23.8919 25.1297C23.7769 25.0785 23.6734 25.0046 23.5876 24.9125L13.0001 14.3266L2.41255 24.9125C2.23483 25.0781 1.99978 25.1682 1.7569 25.164C1.51402 25.1597 1.28229 25.0613 1.11052 24.8895C0.938759 24.7178 0.840369 24.486 0.836084 24.2431C0.831798 24.0003 0.921952 23.7652 1.08755 23.5875L11.6735 13L1.08755 2.41249C0.921952 2.23477 0.831798 1.99971 0.836084 1.75684C0.840369 1.51396 0.938759 1.28223 1.11052 1.11046C1.28229 0.938697 1.51402 0.840308 1.7569 0.836023C1.99978 0.831737 2.23483 0.921891 2.41255 1.08749L13.0001 11.6734L23.5876 1.08749C23.7653 0.921891 24.0003 0.831737 24.2432 0.836023C24.4861 0.840308 24.7178 0.938697 24.8896 1.11046C25.0613 1.28223 25.1597 1.51396 25.164 1.75684C25.1683 1.99971 25.0782 2.23477 24.9126 2.41249L14.3266 13L24.9126 23.5875Z" fill="#2E2E2E"/>
</svg>
